<?xml version="1.0" standalone="no"?>
<!DOCTYPE svg PUBLIC "-//W3C//DTD SVG 1.1//EN" "http://www.w3.org/Graphics/SVG/1.1/DTD/svg11.dtd">
<svg width="975.000000" height="1800.000000" viewbox="0 0 975.000000 1800.000000" version="1.1" xmlns="http://www.w3.org/2000/svg">
<text x="88.646364" y="811.363636" alignment-baseline="middle" text-anchor="middle" font-family="Times" font-size="48.000000" fill="#33AAFF">

</text>
<g transform=" rotate(0.000000, 434.328182, 507.116645) ">
<rect x="425.464545" y="506.454804" width="17.727273" height="1.323683" fill="#FEDB00" stroke="#FEDB00" stroke-width="0.500000" />
</g>
<g transform=" rotate(0.000000, 452.055455, 322.571027) ">
<rect x="443.191818" y="322.405442" width="17.727273" height="0.331168" fill="#E7750A" stroke="#E7750A" stroke-width="0.500000" />
</g>
<g transform=" rotate(0.000000, 434.328182, 155.465720) ">
<rect x="425.464545" y="155.174679" width="17.727273" height="0.582082" fill="#8600D1" stroke="#8600D1" stroke-width="0.500000" />
</g>
<g transform=" rotate(0.000000, 434.328182, 797.435751) ">
<rect x="425.464545" y="797.240149" width="17.727273" height="0.391204" fill="#E54A19" stroke="#E54A19" stroke-width="0.500000" />
</g>
<g transform=" rotate(0.000000, 434.328182, 383.974917) ">
<rect x="425.464545" y="383.758058" width="17.727273" height="0.433718" fill="#FDD200" stroke="#FDD200" stroke-width="0.500000" />
</g>
<g transform=" rotate(0.000000, 434.328182, 843.398031) ">
<rect x="425.464545" y="843.078815" width="17.727273" height="0.638432" fill="#28B15E" stroke="#28B15E" stroke-width="0.500000" />
</g>
<g transform=" rotate(0.000000, 434.328182, 54.876079) ">
<rect x="425.464545" y="54.806223" width="17.727273" height="0.139713" fill="#AAAAAA" stroke="#AAAAAA" stroke-width="0.500000" />
</g>
<g transform=" rotate(0.000000, 452.055455, 803.077248) ">
<rect x="443.191818" y="803.020079" width="17.727273" height="0.114337" fill="#E7750A" stroke="#E7750A" stroke-width="0.500000" />
</g>
<g transform=" rotate(0.000000, 452.055455, 182.021735) ">
<rect x="443.191818" y="181.232236" width="17.727273" height="1.578998" fill="#08989E" stroke="#08989E" stroke-width="0.500000" />
</g>
<g transform=" rotate(0.000000, 452.055455, 324.414011) ">
<rect x="443.191818" y="324.076344" width="17.727273" height="0.675334" fill="#67CA1F" stroke="#67CA1F" stroke-width="0.500000" />
</g>
<g transform=" rotate(0.000000, 452.055455, 806.702789) ">
<rect x="443.191818" y="805.464368" width="17.727273" height="2.476844" fill="#2D41C9" stroke="#2D41C9" stroke-width="0.500000" />
</g>
<g transform=" rotate(0.000000, 434.328182, 112.916332) ">
<rect x="425.464545" y="111.996074" width="17.727273" height="1.840516" fill="#AAAAAA" stroke="#AAAAAA" stroke-width="0.500000" />
</g>
<g transform=" rotate(0.000000, 452.055455, 156.446303) ">
<rect x="443.191818" y="155.842627" width="17.727273" height="1.207352" fill="#F7E700" stroke="#F7E700" stroke-width="0.500000" />
</g>
<g transform=" rotate(0.000000, 434.328182, 419.760216) ">
<rect x="425.464545" y="419.350781" width="17.727273" height="0.818871" fill="#0D9E91" stroke="#0D9E91" stroke-width="0.500000" />
</g>
<g transform=" rotate(0.000000, 452.055455, 762.512758) ">
<rect x="443.191818" y="762.425998" width="17.727273" height="0.173520" fill="#0D9E91" stroke="#0D9E91" stroke-width="0.500000" />
</g>
<g transform=" rotate(0.000000, 434.328182, 68.711006) ">
<rect x="425.464545" y="68.037879" width="17.727273" height="1.346253" fill="#28B15E" stroke="#28B15E" stroke-width="0.500000" />
</g>
<g transform=" rotate(0.000000, 452.055455, 328.920605) ">
<rect x="443.191818" y="328.388629" width="17.727273" height="1.063953" fill="#08989E" stroke="#08989E" stroke-width="0.500000" />
</g>
<g transform=" rotate(0.000000, 452.055455, 399.440509) ">
<rect x="443.191818" y="399.305417" width="17.727273" height="0.270183" fill="#E63223" stroke="#E63223" stroke-width="0.500000" />
</g>
<g transform=" rotate(0.000000, 434.328182, 803.953830) ">
<rect x="425.464545" y="803.851507" width="17.727273" height="0.204645" fill="#43BD3B" stroke="#43BD3B" stroke-width="0.500000" />
</g>
<g transform=" rotate(0.000000, 434.328182, 851.819419) ">
<rect x="425.464545" y="851.682464" width="17.727273" height="0.273910" fill="#AAAAAA" stroke="#AAAAAA" stroke-width="0.500000" />
</g>
<g transform=" rotate(0.000000, 434.328182, 809.902185) ">
<rect x="425.464545" y="808.813420" width="17.727273" height="2.177530" fill="#43BD3B" stroke="#43BD3B" stroke-width="0.500000" />
</g>
<g transform=" rotate(0.000000, 452.055455, 775.810372) ">
<rect x="443.191818" y="775.029703" width="17.727273" height="1.561338" fill="#AAAAAA" stroke="#AAAAAA" stroke-width="0.500000" />
</g>
<g transform=" rotate(0.000000, 434.328182, 406.575983) ">
<rect x="425.464545" y="406.285162" width="17.727273" height="0.581642" fill="#AAAAAA" stroke="#AAAAAA" stroke-width="0.500000" />
</g>
<g transform=" rotate(0.000000, 434.328182, -2.538312) ">
<rect x="425.464545" y="-2.666589" width="17.727273" height="0.256553" fill="#AF00BE" stroke="#AF00BE" stroke-width="0.500000" />
</g>
<g transform=" rotate(0.000000, 452.055455, 221.292422) ">
<rect x="443.191818" y="221.212711" width="17.727273" height="0.159422" fill="#28B15E" stroke="#28B15E" stroke-width="0.500000" />
</g>
<g transform=" rotate(0.000000, 452.055455, 803.465578) ">
<rect x="443.191818" y="803.332515" width="17.727273" height="0.266126" fill="#F2003C" stroke="#F2003C" stroke-width="0.500000" />
</g>
<g transform=" rotate(0.000000, 452.055455, 8.484635) ">
<rect x="443.191818" y="3.751953" width="17.727273" height="9.465364" fill="#0578B9" stroke="#0578B9" stroke-width="0.500000" />
</g>
<g transform=" rotate(0.000000, 434.328182, 396.571291) ">
<rect x="425.464545" y="396.277493" width="17.727273" height="0.587597" fill="#EE9A01" stroke="#EE9A01" stroke-width="0.500000" />
</g>
<g transform=" rotate(0.000000, 452.055455, 784.679157) ">
<rect x="443.191818" y="784.190196" width="17.727273" height="0.977922" fill="#FEDB00" stroke="#FEDB00" stroke-width="0.500000" />
</g>
<g transform=" rotate(0.000000, 452.055455, 367.591358) ">
<rect x="443.191818" y="367.150433" width="17.727273" height="0.881850" fill="#F2003C" stroke="#F2003C" stroke-width="0.500000" />
</g>
<g transform=" rotate(0.000000, 452.055455, 577.760582) ">
<rect x="443.191818" y="575.641177" width="17.727273" height="4.238811" fill="#43BD3B" stroke="#43BD3B" stroke-width="0.500000" />
</g>
<g transform=" rotate(0.000000, 434.328182, 284.750112) ">
<rect x="425.464545" y="283.261979" width="17.727273" height="2.976264" fill="#4927D0" stroke="#4927D0" stroke-width="0.500000" />
</g>
<g transform=" rotate(0.000000, 452.055455, 774.280338) ">
<rect x="443.191818" y="774.184535" width="17.727273" height="0.191607" fill="#FBC700" stroke="#FBC700" stroke-width="0.500000" />
</g>
<g transform=" rotate(0.000000, 434.328182, -15.781378) ">
<rect x="425.464545" y="-16.023296" width="17.727273" height="0.483837" fill="#54C42C" stroke="#54C42C" stroke-width="0.500000" />
</g>
<g transform=" rotate(0.000000, 452.055455, 360.639960) ">
<rect x="443.191818" y="360.116374" width="17.727273" height="1.047173" fill="#43BD3B" stroke="#43BD3B" stroke-width="0.500000" />
</g>
<g transform=" rotate(0.000000, 434.328182, 405.605674) ">
<rect x="425.464545" y="405.321613" width="17.727273" height="0.568122" fill="#14A582" stroke="#14A582" stroke-width="0.500000" />
</g>
<g transform=" rotate(0.000000, 452.055455, 772.840627) ">
<rect x="443.191818" y="772.607064" width="17.727273" height="0.467126" fill="#FEDB00" stroke="#FEDB00" stroke-width="0.500000" />
</g>
<g transform=" rotate(0.000000, 452.055455, 180.752084) ">
<rect x="443.191818" y="180.403325" width="17.727273" height="0.697519" fill="#EEEA00" stroke="#EEEA00" stroke-width="0.500000" />
</g>
<g transform=" rotate(0.000000, 434.328182, 848.685087) ">
<rect x="425.464545" y="848.202116" width="17.727273" height="0.965942" fill="#E1EA01" stroke="#E1EA01" stroke-width="0.500000" />
</g>
<g transform=" rotate(0.000000, 434.328182, 529.032956) ">
<rect x="425.464545" y="529.007408" width="17.727273" height="0.051096" fill="#43BD3B" stroke="#43BD3B" stroke-width="0.500000" />
</g>
<g transform=" rotate(0.000000, 434.328182, 530.639709) ">
<rect x="425.464545" y="530.558787" width="17.727273" height="0.161843" fill="#35B74D" stroke="#35B74D" stroke-width="0.500000" />
</g>
<g transform=" rotate(0.000000, 452.055455, 336.014701) ">
<rect x="443.191818" y="334.789400" width="17.727273" height="2.450601" fill="#EA8805" stroke="#EA8805" stroke-width="0.500000" />
</g>
<g transform=" rotate(0.000000, 452.055455, 178.550306) ">
<rect x="443.191818" y="178.379881" width="17.727273" height="0.340851" fill="#096EBC" stroke="#096EBC" stroke-width="0.500000" />
</g>
<g transform=" rotate(0.000000, 452.055455, 853.700420) ">
<rect x="443.191818" y="853.677162" width="17.727273" height="0.046516" fill="#E63223" stroke="#E63223" stroke-width="0.500000" />
</g>
<g transform=" rotate(0.000000, 452.055455, 853.504337) ">
<rect x="443.191818" y="853.492694" width="17.727273" height="0.023285" fill="#E63223" stroke="#E63223" stroke-width="0.500000" />
</g>
<g transform=" rotate(0.000000, 434.328182, 853.085521) ">
<rect x="425.464545" y="853.072950" width="17.727273" height="0.025142" fill="#E63223" stroke="#E63223" stroke-width="0.500000" />
</g>
<g transform=" rotate(0.000000, 452.055455, 852.538044) ">
<rect x="443.191818" y="852.519971" width="17.727273" height="0.036145" fill="#E63223" stroke="#E63223" stroke-width="0.500000" />
</g>
<g transform=" rotate(0.000000, 452.055455, 852.113816) ">
<rect x="443.191818" y="852.090710" width="17.727273" height="0.046213" fill="#E63223" stroke="#E63223" stroke-width="0.500000" />
</g>
<g transform=" rotate(0.000000, 452.055455, 404.745686) ">
<rect x="443.191818" y="404.422667" width="17.727273" height="0.646038" fill="#E7750A" stroke="#E7750A" stroke-width="0.500000" />
</g>
<g transform=" rotate(0.000000, 452.055455, 598.954403) ">
<rect x="443.191818" y="597.603322" width="17.727273" height="2.702161" fill="#EE9A01" stroke="#EE9A01" stroke-width="0.500000" />
</g>
<g transform=" rotate(0.000000, 434.328182, 392.433497) ">
<rect x="425.464545" y="392.359768" width="17.727273" height="0.147456" fill="#BCE305" stroke="#BCE305" stroke-width="0.500000" />
</g>
<g transform=" rotate(0.000000, 452.055455, 403.034753) ">
<rect x="443.191818" y="402.328583" width="17.727273" height="1.412341" fill="#AAAAAA" stroke="#AAAAAA" stroke-width="0.500000" />
</g>
<g transform=" rotate(0.000000, 452.055455, 358.308393) ">
<rect x="443.191818" y="357.336708" width="17.727273" height="1.943368" fill="#A7DE08" stroke="#A7DE08" stroke-width="0.500000" />
</g>
<g transform=" rotate(0.000000, 434.328182, 666.570071) ">
<rect x="425.464545" y="666.084803" width="17.727273" height="0.970536" fill="#14A582" stroke="#14A582" stroke-width="0.500000" />
</g>
<g transform=" rotate(0.000000, 452.055455, 208.670857) ">
<rect x="443.191818" y="206.647510" width="17.727273" height="4.046695" fill="#BCE305" stroke="#BCE305" stroke-width="0.500000" />
</g>
<g transform=" rotate(0.000000, 452.055455, 844.051606) ">
<rect x="443.191818" y="843.888291" width="17.727273" height="0.326629" fill="#AAAAAA" stroke="#AAAAAA" stroke-width="0.500000" />
</g>
<g transform=" rotate(0.000000, 452.055455, 78.102298) ">
<rect x="443.191818" y="78.079782" width="17.727273" height="0.045031" fill="#AAAAAA" stroke="#AAAAAA" stroke-width="0.500000" />
</g>
<g transform=" rotate(0.000000, 434.328182, 771.793633) ">
<rect x="425.464545" y="771.458731" width="17.727273" height="0.669805" fill="#0381B5" stroke="#0381B5" stroke-width="0.500000" />
</g>
<g transform=" rotate(0.000000, 434.328182, 836.686543) ">
<rect x="425.464545" y="836.520162" width="17.727273" height="0.332764" fill="#BA00B3" stroke="#BA00B3" stroke-width="0.500000" />
</g>
<g transform=" rotate(0.000000, 434.328182, 368.185193) ">
<rect x="425.464545" y="368.038032" width="17.727273" height="0.294321" fill="#EEEA00" stroke="#EEEA00" stroke-width="0.500000" />
</g>
<g transform=" rotate(0.000000, 434.328182, 376.234798) ">
<rect x="425.464545" y="376.041279" width="17.727273" height="0.387037" fill="#FCE200" stroke="#FCE200" stroke-width="0.500000" />
</g>
<g transform=" rotate(0.000000, 452.055455, 45.910123) ">
<rect x="443.191818" y="45.418597" width="17.727273" height="0.983052" fill="#1759C2" stroke="#1759C2" stroke-width="0.500000" />
</g>
<g transform=" rotate(0.000000, 434.328182, 778.966050) ">
<rect x="425.464545" y="778.507892" width="17.727273" height="0.916318" fill="#FEDB00" stroke="#FEDB00" stroke-width="0.500000" />
</g>
<g transform=" rotate(0.000000, 452.055455, 245.071942) ">
<rect x="443.191818" y="244.529375" width="17.727273" height="1.085134" fill="#FDD200" stroke="#FDD200" stroke-width="0.500000" />
</g>
<g transform=" rotate(0.000000, 452.055455, 673.287418) ">
<rect x="443.191818" y="672.744961" width="17.727273" height="1.084914" fill="#AAAAAA" stroke="#AAAAAA" stroke-width="0.500000" />
</g>
<g transform=" rotate(0.000000, 452.055455, 811.443951) ">
<rect x="443.191818" y="811.340782" width="17.727273" height="0.206337" fill="#0F64BF" stroke="#0F64BF" stroke-width="0.500000" />
</g>
<g transform=" rotate(0.000000, 434.328182, 176.388738) ">
<rect x="425.464545" y="175.075900" width="17.727273" height="2.625676" fill="#C300A4" stroke="#C300A4" stroke-width="0.500000" />
</g>
<g transform=" rotate(0.000000, 434.328182, 235.422660) ">
<rect x="425.464545" y="235.362129" width="17.727273" height="0.121063" fill="#C300A4" stroke="#C300A4" stroke-width="0.500000" />
</g>
<g transform=" rotate(0.000000, 434.328182, 329.789815) ">
<rect x="425.464545" y="329.444013" width="17.727273" height="0.691605" fill="#AAAAAA" stroke="#AAAAAA" stroke-width="0.500000" />
</g>
<g transform=" rotate(0.000000, 434.328182, 629.803419) ">
<rect x="425.464545" y="627.731176" width="17.727273" height="4.144486" fill="#581BD2" stroke="#581BD2" stroke-width="0.500000" />
</g>
<g transform=" rotate(0.000000, 452.055455, 564.285886) ">
<rect x="443.191818" y="563.456253" width="17.727273" height="1.659266" fill="#A7DE08" stroke="#A7DE08" stroke-width="0.500000" />
</g>
<g transform=" rotate(0.000000, 434.328182, -1.708603) ">
<rect x="425.464545" y="-2.116801" width="17.727273" height="0.816395" fill="#EB1A2F" stroke="#EB1A2F" stroke-width="0.500000" />
</g>
<g transform=" rotate(0.000000, 434.328182, 812.107780) ">
<rect x="425.464545" y="812.032305" width="17.727273" height="0.150950" fill="#43BD3B" stroke="#43BD3B" stroke-width="0.500000" />
</g>
<g transform=" rotate(0.000000, 452.055455, 649.038165) ">
<rect x="443.191818" y="634.886504" width="17.727273" height="28.303320" fill="#3A34CD" stroke="#3A34CD" stroke-width="0.500000" />
</g>
<g transform=" rotate(0.000000, 452.055455, 404.067911) ">
<rect x="443.191818" y="403.858080" width="17.727273" height="0.419661" fill="#AF00BE" stroke="#AF00BE" stroke-width="0.500000" />
</g>
<g transform=" rotate(0.000000, 452.055455, 802.571370) ">
<rect x="443.191818" y="802.369709" width="17.727273" height="0.403322" fill="#4927D0" stroke="#4927D0" stroke-width="0.500000" />
</g>
<g transform=" rotate(0.000000, 452.055455, 773.504353) ">
<rect x="443.191818" y="773.172022" width="17.727273" height="0.664661" fill="#E7750A" stroke="#E7750A" stroke-width="0.500000" />
</g>
<g transform=" rotate(0.000000, 452.055455, 370.828975) ">
<rect x="443.191818" y="370.482747" width="17.727273" height="0.692458" fill="#7CD115" stroke="#7CD115" stroke-width="0.500000" />
</g>
<g transform=" rotate(0.000000, 434.328182, 370.992496) ">
<rect x="425.464545" y="370.467191" width="17.727273" height="1.050611" fill="#AAAAAA" stroke="#AAAAAA" stroke-width="0.500000" />
</g>
<g transform=" rotate(0.000000, 452.055455, -8.055541) ">
<rect x="443.191818" y="-8.091886" width="17.727273" height="0.072690" fill="#FBC700" stroke="#FBC700" stroke-width="0.500000" />
</g>
<g transform=" rotate(0.000000, 452.055455, 254.746359) ">
<rect x="443.191818" y="254.406107" width="17.727273" height="0.680506" fill="#A7DE08" stroke="#A7DE08" stroke-width="0.500000" />
</g>
<g transform=" rotate(0.000000, 452.055455, 374.444992) ">
<rect x="443.191818" y="374.259080" width="17.727273" height="0.371825" fill="#43BD3B" stroke="#43BD3B" stroke-width="0.500000" />
</g>
<g transform=" rotate(0.000000, 452.055455, -27.282591) ">
<rect x="443.191818" y="-27.904698" width="17.727273" height="1.244212" fill="#0389B0" stroke="#0389B0" stroke-width="0.500000" />
</g>
<g transform=" rotate(0.000000, 434.328182, 533.865986) ">
<rect x="425.464545" y="533.542768" width="17.727273" height="0.646437" fill="#CA0093" stroke="#CA0093" stroke-width="0.500000" />
</g>
<g transform=" rotate(0.000000, 452.055455, 201.275956) ">
<rect x="443.191818" y="200.210194" width="17.727273" height="2.131523" fill="#FBC700" stroke="#FBC700" stroke-width="0.500000" />
</g>
<g transform=" rotate(0.000000, 434.328182, 377.629685) ">
<rect x="425.464545" y="376.690618" width="17.727273" height="1.878133" fill="#E7750A" stroke="#E7750A" stroke-width="0.500000" />
</g>
<g transform=" rotate(0.000000, 434.328182, 147.697274) ">
<rect x="425.464545" y="146.487790" width="17.727273" height="2.418967" fill="#7705D3" stroke="#7705D3" stroke-width="0.500000" />
</g>
<g transform=" rotate(0.000000, 434.328182, 364.888908) ">
<rect x="425.464545" y="364.673630" width="17.727273" height="0.430555" fill="#FDD200" stroke="#FDD200" stroke-width="0.500000" />
</g>
<g transform=" rotate(0.000000, 434.328182, 408.484072) ">
<rect x="425.464545" y="407.507437" width="17.727273" height="1.953271" fill="#AAAAAA" stroke="#AAAAAA" stroke-width="0.500000" />
</g>
<g transform=" rotate(0.000000, 434.328182, -26.037492) ">
<rect x="425.464545" y="-26.046783" width="17.727273" height="0.018582" fill="#54C42C" stroke="#54C42C" stroke-width="0.500000" />
</g>
<g transform=" rotate(0.000000, 452.055455, 850.823624) ">
<rect x="443.191818" y="850.735063" width="17.727273" height="0.177124" fill="#43BD3B" stroke="#43BD3B" stroke-width="0.500000" />
</g>
<g transform=" rotate(0.000000, 434.328182, 835.628491) ">
<rect x="425.464545" y="835.410628" width="17.727273" height="0.435726" fill="#CA0093" stroke="#CA0093" stroke-width="0.500000" />
</g>
<g transform=" rotate(0.000000, 434.328182, 722.430325) ">
<rect x="425.464545" y="720.355868" width="17.727273" height="4.148915" fill="#1759C2" stroke="#1759C2" stroke-width="0.500000" />
</g>
<g transform=" rotate(0.000000, 452.055455, 801.912561) ">
<rect x="443.191818" y="801.630309" width="17.727273" height="0.564505" fill="#BCE305" stroke="#BCE305" stroke-width="0.500000" />
</g>
<g transform=" rotate(0.000000, 452.055455, 616.976824) ">
<rect x="443.191818" y="615.199322" width="17.727273" height="3.555004" fill="#BA00B3" stroke="#BA00B3" stroke-width="0.500000" />
</g>
<g transform=" rotate(0.000000, 434.328182, 828.359253) ">
<rect x="425.464545" y="828.252467" width="17.727273" height="0.213572" fill="#54C42C" stroke="#54C42C" stroke-width="0.500000" />
</g>
<g transform=" rotate(0.000000, 452.055455, 109.969349) ">
<rect x="443.191818" y="109.830400" width="17.727273" height="0.277899" fill="#F7BA00" stroke="#F7BA00" stroke-width="0.500000" />
</g>
<g transform=" rotate(0.000000, 452.055455, 34.395911) ">
<rect x="443.191818" y="32.537735" width="17.727273" height="3.716352" fill="#43BD3B" stroke="#43BD3B" stroke-width="0.500000" />
</g>
<g transform=" rotate(0.000000, 452.055455, 362.447982) ">
<rect x="443.191818" y="361.221079" width="17.727273" height="2.453806" fill="#FBC700" stroke="#FBC700" stroke-width="0.500000" />
</g>
<g transform=" rotate(0.000000, 452.055455, 738.459341) ">
<rect x="443.191818" y="732.331195" width="17.727273" height="12.256293" fill="#8600D1" stroke="#8600D1" stroke-width="0.500000" />
</g>
<g transform=" rotate(0.000000, 452.055455, 289.473461) ">
<rect x="443.191818" y="289.061936" width="17.727273" height="0.823052" fill="#0D9E91" stroke="#0D9E91" stroke-width="0.500000" />
</g>
<g transform=" rotate(0.000000, 434.328182, 62.352879) ">
<rect x="425.464545" y="61.918639" width="17.727273" height="0.868481" fill="#67CA1F" stroke="#67CA1F" stroke-width="0.500000" />
</g>
<g transform=" rotate(0.000000, 452.055455, 412.483633) ">
<rect x="443.191818" y="412.271911" width="17.727273" height="0.423444" fill="#E56011" stroke="#E56011" stroke-width="0.500000" />
</g>
<g transform=" rotate(0.000000, 452.055455, 321.142215) ">
<rect x="443.191818" y="320.335414" width="17.727273" height="1.613603" fill="#670FD3" stroke="#670FD3" stroke-width="0.500000" />
</g>
<g transform=" rotate(0.000000, 434.328182, 185.504572) ">
<rect x="425.464545" y="184.104204" width="17.727273" height="2.800736" fill="#7705D3" stroke="#7705D3" stroke-width="0.500000" />
</g>
<g transform=" rotate(0.000000, 452.055455, 791.121843) ">
<rect x="443.191818" y="791.016254" width="17.727273" height="0.211179" fill="#8600D1" stroke="#8600D1" stroke-width="0.500000" />
</g>
<g transform=" rotate(0.000000, 452.055455, 371.622174) ">
<rect x="443.191818" y="371.318438" width="17.727273" height="0.607472" fill="#7705D3" stroke="#7705D3" stroke-width="0.500000" />
</g>
<g transform=" rotate(0.000000, 452.055455, -24.670649) ">
<rect x="443.191818" y="-25.028012" width="17.727273" height="0.714725" fill="#0590A8" stroke="#0590A8" stroke-width="0.500000" />
</g>
<g transform=" rotate(0.000000, 452.055455, 839.846327) ">
<rect x="443.191818" y="839.322631" width="17.727273" height="1.047393" fill="#C300A4" stroke="#C300A4" stroke-width="0.500000" />
</g>
<g transform=" rotate(0.000000, 434.328182, 174.364641) ">
<rect x="425.464545" y="173.922643" width="17.727273" height="0.883996" fill="#9500CD" stroke="#9500CD" stroke-width="0.500000" />
</g>
<g transform=" rotate(0.000000, 434.328182, -18.145322) ">
<rect x="425.464545" y="-18.209752" width="17.727273" height="0.128861" fill="#7705D3" stroke="#7705D3" stroke-width="0.500000" />
</g>
<g transform=" rotate(0.000000, 452.055455, 160.448765) ">
<rect x="443.191818" y="159.933541" width="17.727273" height="1.030448" fill="#A7DE08" stroke="#A7DE08" stroke-width="0.500000" />
</g>
<g transform=" rotate(0.000000, 434.328182, 269.331029) ">
<rect x="425.464545" y="261.647934" width="17.727273" height="15.366191" fill="#7CD115" stroke="#7CD115" stroke-width="0.500000" />
</g>
<g transform=" rotate(0.000000, 434.328182, 392.014097) ">
<rect x="425.464545" y="391.893302" width="17.727273" height="0.241589" fill="#43BD3B" stroke="#43BD3B" stroke-width="0.500000" />
</g>
<g transform=" rotate(0.000000, 452.055455, 53.293994) ">
<rect x="443.191818" y="52.896428" width="17.727273" height="0.795131" fill="#08989E" stroke="#08989E" stroke-width="0.500000" />
</g>
<g transform=" rotate(0.000000, 452.055455, 838.334772) ">
<rect x="443.191818" y="837.850873" width="17.727273" height="0.967799" fill="#A200C7" stroke="#A200C7" stroke-width="0.500000" />
</g>
<g transform=" rotate(0.000000, 452.055455, 387.345440) ">
<rect x="443.191818" y="386.556910" width="17.727273" height="1.577059" fill="#EA8805" stroke="#EA8805" stroke-width="0.500000" />
</g>
<g transform=" rotate(0.000000, 434.328182, -2.826135) ">
<rect x="425.464545" y="-2.945079" width="17.727273" height="0.237889" fill="#AAAAAA" stroke="#AAAAAA" stroke-width="0.500000" />
</g>
<g transform=" rotate(0.000000, 452.055455, 849.915711) ">
<rect x="443.191818" y="849.754321" width="17.727273" height="0.322778" fill="#4927D0" stroke="#4927D0" stroke-width="0.500000" />
</g>
<g transform=" rotate(0.000000, 434.328182, 346.149594) ">
<rect x="425.464545" y="345.464330" width="17.727273" height="1.370529" fill="#92D80E" stroke="#92D80E" stroke-width="0.500000" />
</g>
<g transform=" rotate(0.000000, 434.328182, 801.058645) ">
<rect x="425.464545" y="800.451593" width="17.727273" height="1.214105" fill="#1DAB70" stroke="#1DAB70" stroke-width="0.500000" />
</g>
<g transform=" rotate(0.000000, 434.328182, 612.951805) ">
<rect x="425.464545" y="612.479927" width="17.727273" height="0.943757" fill="#F2AB00" stroke="#F2AB00" stroke-width="0.500000" />
</g>
<g transform=" rotate(0.000000, 452.055455, -20.130654) ">
<rect x="443.191818" y="-20.395026" width="17.727273" height="0.528744" fill="#A200C7" stroke="#A200C7" stroke-width="0.500000" />
</g>
<g transform=" rotate(0.000000, 434.328182, 361.136307) ">
<rect x="425.464545" y="361.096042" width="17.727273" height="0.080530" fill="#43BD3B" stroke="#43BD3B" stroke-width="0.500000" />
</g>
<g transform=" rotate(0.000000, 434.328182, 846.481954) ">
<rect x="425.464545" y="846.381667" width="17.727273" height="0.200574" fill="#14A582" stroke="#14A582" stroke-width="0.500000" />
</g>
<g transform=" rotate(0.000000, 434.328182, 837.532427) ">
<rect x="425.464545" y="837.399495" width="17.727273" height="0.265864" fill="#28B15E" stroke="#28B15E" stroke-width="0.500000" />
</g>
<g transform=" rotate(0.000000, 434.328182, 804.832689) ">
<rect x="425.464545" y="804.694062" width="17.727273" height="0.277253" fill="#7CD115" stroke="#7CD115" stroke-width="0.500000" />
</g>
<g transform=" rotate(0.000000, 452.055455, 829.310223) ">
<rect x="443.191818" y="828.990959" width="17.727273" height="0.638528" fill="#7CD115" stroke="#7CD115" stroke-width="0.500000" />
</g>
<g transform=" rotate(0.000000, 434.328182, 833.788360) ">
<rect x="425.464545" y="833.399535" width="17.727273" height="0.777650" fill="#08989E" stroke="#08989E" stroke-width="0.500000" />
</g>
<g transform=" rotate(0.000000, 434.328182, 835.309922) ">
<rect x="425.464545" y="835.166564" width="17.727273" height="0.286715" fill="#AAAAAA" stroke="#AAAAAA" stroke-width="0.500000" />
</g>
<g transform=" rotate(0.000000, 434.328182, 834.410645) ">
<rect x="425.464545" y="834.241526" width="17.727273" height="0.338238" fill="#AAAAAA" stroke="#AAAAAA" stroke-width="0.500000" />
</g>
<g transform=" rotate(0.000000, 434.328182, 833.077630) ">
<rect x="425.464545" y="832.880763" width="17.727273" height="0.393735" fill="#54C42C" stroke="#54C42C" stroke-width="0.500000" />
</g>
<g transform=" rotate(0.000000, 434.328182, 214.455629) ">
<rect x="425.464545" y="213.584700" width="17.727273" height="1.741859" fill="#C300A4" stroke="#C300A4" stroke-width="0.500000" />
</g>
<g transform=" rotate(0.000000, 434.328182, 787.856491) ">
<rect x="425.464545" y="786.770360" width="17.727273" height="2.172262" fill="#E56011" stroke="#E56011" stroke-width="0.500000" />
</g>
<g transform=" rotate(0.000000, 452.055455, 587.922248) ">
<rect x="443.191818" y="584.412982" width="17.727273" height="7.018531" fill="#C300A4" stroke="#C300A4" stroke-width="0.500000" />
</g>
<g transform=" rotate(0.000000, 452.055455, 710.769001) ">
<rect x="443.191818" y="709.383109" width="17.727273" height="2.771784" fill="#AAAAAA" stroke="#AAAAAA" stroke-width="0.500000" />
</g>
<g transform=" rotate(0.000000, 452.055455, 798.542795) ">
<rect x="443.191818" y="798.083639" width="17.727273" height="0.918312" fill="#1DAB70" stroke="#1DAB70" stroke-width="0.500000" />
</g>
<g transform=" rotate(0.000000, 452.055455, 714.523039) ">
<rect x="443.191818" y="713.913821" width="17.727273" height="1.218437" fill="#54C42C" stroke="#54C42C" stroke-width="0.500000" />
</g>
<g transform=" rotate(0.000000, 452.055455, 837.969143) ">
<rect x="443.191818" y="837.673350" width="17.727273" height="0.591586" fill="#0389B0" stroke="#0389B0" stroke-width="0.500000" />
</g>
<g transform=" rotate(0.000000, 452.055455, 851.171758) ">
<rect x="443.191818" y="851.139925" width="17.727273" height="0.063667" fill="#D0007F" stroke="#D0007F" stroke-width="0.500000" />
</g>
<g transform=" rotate(0.000000, 452.055455, 675.655440) ">
<rect x="443.191818" y="674.554269" width="17.727273" height="2.202342" fill="#FEDB00" stroke="#FEDB00" stroke-width="0.500000" />
</g>
<g transform=" rotate(0.000000, 434.328182, 846.741836) ">
<rect x="425.464545" y="846.695382" width="17.727273" height="0.092908" fill="#D0E702" stroke="#D0E702" stroke-width="0.500000" />
</g>
<g transform=" rotate(0.000000, 434.328182, 179.662082) ">
<rect x="425.464545" y="179.146115" width="17.727273" height="1.031933" fill="#214DC5" stroke="#214DC5" stroke-width="0.500000" />
</g>
<g transform=" rotate(0.000000, 452.055455, 236.433502) ">
<rect x="443.191818" y="235.653067" width="17.727273" height="1.560870" fill="#EB1A2F" stroke="#EB1A2F" stroke-width="0.500000" />
</g>
<g transform=" rotate(0.000000, 452.055455, 826.257597) ">
<rect x="443.191818" y="825.738886" width="17.727273" height="1.037421" fill="#FBC700" stroke="#FBC700" stroke-width="0.500000" />
</g>
<g transform=" rotate(0.000000, 434.328182, 199.321619) ">
<rect x="425.464545" y="198.425767" width="17.727273" height="1.791703" fill="#0381B5" stroke="#0381B5" stroke-width="0.500000" />
</g>
<g transform=" rotate(0.000000, 434.328182, 2.802619) ">
<rect x="425.464545" y="2.030051" width="17.727273" height="1.545136" fill="#4927D0" stroke="#4927D0" stroke-width="0.500000" />
</g>
<g transform=" rotate(0.000000, 434.328182, 849.506055) ">
<rect x="425.464545" y="849.319875" width="17.727273" height="0.372361" fill="#EB1A2F" stroke="#EB1A2F" stroke-width="0.500000" />
</g>
<g transform=" rotate(0.000000, 452.055455, -25.413006) ">
<rect x="443.191818" y="-25.567814" width="17.727273" height="0.309616" fill="#14A582" stroke="#14A582" stroke-width="0.500000" />
</g>
<g transform=" rotate(0.000000, 434.328182, 847.331813) ">
<rect x="425.464545" y="847.286418" width="17.727273" height="0.090790" fill="#581BD2" stroke="#581BD2" stroke-width="0.500000" />
</g>
<g transform=" rotate(0.000000, 434.328182, -8.775473) ">
<rect x="425.464545" y="-8.917469" width="17.727273" height="0.283992" fill="#0389B0" stroke="#0389B0" stroke-width="0.500000" />
</g>
<g transform=" rotate(0.000000, 452.055455, 823.792678) ">
<rect x="443.191818" y="823.482684" width="17.727273" height="0.619988" fill="#D0007F" stroke="#D0007F" stroke-width="0.500000" />
</g>
<g transform=" rotate(0.000000, 452.055455, 822.578325) ">
<rect x="443.191818" y="822.221788" width="17.727273" height="0.713075" fill="#FBC700" stroke="#FBC700" stroke-width="0.500000" />
</g>
<g transform=" rotate(0.000000, 452.055455, 413.651229) ">
<rect x="443.191818" y="413.254069" width="17.727273" height="0.794320" fill="#7CD115" stroke="#7CD115" stroke-width="0.500000" />
</g>
<g transform=" rotate(0.000000, 452.055455, 820.070081) ">
<rect x="443.191818" y="819.346780" width="17.727273" height="1.446602" fill="#8600D1" stroke="#8600D1" stroke-width="0.500000" />
</g>
<g transform=" rotate(0.000000, 434.328182, 785.664891) ">
<rect x="425.464545" y="785.356313" width="17.727273" height="0.617155" fill="#08989E" stroke="#08989E" stroke-width="0.500000" />
</g>
<g transform=" rotate(0.000000, 452.055455, 250.613530) ">
<rect x="443.191818" y="249.549302" width="17.727273" height="2.128456" fill="#14A582" stroke="#14A582" stroke-width="0.500000" />
</g>
<g transform=" rotate(0.000000, 452.055455, 850.452597) ">
<rect x="443.191818" y="850.213801" width="17.727273" height="0.477593" fill="#D0E702" stroke="#D0E702" stroke-width="0.500000" />
</g>
<g transform=" rotate(0.000000, 452.055455, 123.504377) ">
<rect x="443.191818" y="119.908242" width="17.727273" height="7.192271" fill="#670FD3" stroke="#670FD3" stroke-width="0.500000" />
</g>
<g transform=" rotate(0.000000, 434.328182, 812.578441) ">
<rect x="425.464545" y="812.216553" width="17.727273" height="0.723776" fill="#FBC700" stroke="#FBC700" stroke-width="0.500000" />
</g>
<g transform=" rotate(0.000000, 434.328182, 369.377566) ">
<rect x="425.464545" y="368.624020" width="17.727273" height="1.507092" fill="#D0007F" stroke="#D0007F" stroke-width="0.500000" />
</g>
<g transform=" rotate(0.000000, 434.328182, -21.649416) ">
<rect x="425.464545" y="-22.251689" width="17.727273" height="1.204546" fill="#14A582" stroke="#14A582" stroke-width="0.500000" />
</g>
<g transform=" rotate(0.000000, 434.328182, 138.714668) ">
<rect x="425.464545" y="137.664930" width="17.727273" height="2.099476" fill="#14A582" stroke="#14A582" stroke-width="0.500000" />
</g>
<g transform=" rotate(0.000000, 452.055455, -20.746447) ">
<rect x="443.191818" y="-20.943658" width="17.727273" height="0.394423" fill="#14A582" stroke="#14A582" stroke-width="0.500000" />
</g>
<g transform=" rotate(0.000000, 434.328182, 288.356920) ">
<rect x="425.464545" y="287.399479" width="17.727273" height="1.914884" fill="#0389B0" stroke="#0389B0" stroke-width="0.500000" />
</g>
<g transform=" rotate(0.000000, 452.055455, 603.947722) ">
<rect x="443.191818" y="603.750264" width="17.727273" height="0.394918" fill="#14A582" stroke="#14A582" stroke-width="0.500000" />
</g>
<g transform=" rotate(0.000000, 434.328182, 118.626976) ">
<rect x="425.464545" y="118.332352" width="17.727273" height="0.589248" fill="#670FD3" stroke="#670FD3" stroke-width="0.500000" />
</g>
<g transform=" rotate(0.000000, 434.328182, 223.543329) ">
<rect x="425.464545" y="223.381589" width="17.727273" height="0.323480" fill="#0D9E91" stroke="#0D9E91" stroke-width="0.500000" />
</g>
<g transform=" rotate(0.000000, 452.055455, 391.320532) ">
<rect x="443.191818" y="390.903704" width="17.727273" height="0.833656" fill="#14A582" stroke="#14A582" stroke-width="0.500000" />
</g>
<g transform=" rotate(0.000000, 434.328182, 821.252043) ">
<rect x="425.464545" y="820.957123" width="17.727273" height="0.589839" fill="#14A582" stroke="#14A582" stroke-width="0.500000" />
</g>
<g transform=" rotate(0.000000, 452.055455, 41.566726) ">
<rect x="443.191818" y="40.633299" width="17.727273" height="1.866855" fill="#670FD3" stroke="#670FD3" stroke-width="0.500000" />
</g>
<g transform=" rotate(0.000000, 452.055455, 224.809287) ">
<rect x="443.191818" y="224.661397" width="17.727273" height="0.295779" fill="#AAAAAA" stroke="#AAAAAA" stroke-width="0.500000" />
</g>
<line x1="443.191818" y1="855.681818" x2="443.191818" y2="-30.681818" style="stroke:#4499AA; stroke-width:7.000000" />
</svg>
