<?xml version="1.0" standalone="no"?>
<!DOCTYPE svg PUBLIC "-//W3C//DTD SVG 1.1//EN" "http://www.w3.org/Graphics/SVG/1.1/DTD/svg11.dtd">
<svg width="975.000000" height="1000.000000" viewbox="0 0 975.000000 1000.000000" version="1.1" xmlns="http://www.w3.org/2000/svg">
<text x="88.646364" y="811.363636" alignment-baseline="middle" text-anchor="middle" font-family="Times" font-size="48.000000" fill="#33AAFF">

</text>
<g>
<rect x="443.191818" y="595.091168" width="17.727273" height="1.323683" fill="#FEDB00" stroke="#FEDB00" stroke-width="0.500000" />
</g>
<g>
<rect x="425.464545" y="411.041806" width="17.727273" height="0.331168" fill="#E7750A" stroke="#E7750A" stroke-width="0.500000" />
</g>
<g>
<rect x="443.191818" y="243.811042" width="17.727273" height="0.582082" fill="#8600D1" stroke="#8600D1" stroke-width="0.500000" />
</g>
<g>
<rect x="443.191818" y="885.876513" width="17.727273" height="0.391204" fill="#E54A19" stroke="#E54A19" stroke-width="0.500000" />
</g>
<g>
<rect x="443.191818" y="472.394422" width="17.727273" height="0.433718" fill="#FDD200" stroke="#FDD200" stroke-width="0.500000" />
</g>
<g>
<rect x="443.191818" y="931.715178" width="17.727273" height="0.638432" fill="#28B15E" stroke="#28B15E" stroke-width="0.500000" />
</g>
<g>
<rect x="443.191818" y="143.442586" width="17.727273" height="0.139713" fill="#AAAAAA" stroke="#AAAAAA" stroke-width="0.500000" />
</g>
<g>
<rect x="425.464545" y="891.656443" width="17.727273" height="0.114337" fill="#E7750A" stroke="#E7750A" stroke-width="0.500000" />
</g>
<g>
<rect x="425.464545" y="269.868599" width="17.727273" height="1.578998" fill="#08989E" stroke="#08989E" stroke-width="0.500000" />
</g>
<g>
<rect x="425.464545" y="412.712708" width="17.727273" height="0.675334" fill="#67CA1F" stroke="#67CA1F" stroke-width="0.500000" />
</g>
<g>
<rect x="425.464545" y="894.100731" width="17.727273" height="2.476844" fill="#2D41C9" stroke="#2D41C9" stroke-width="0.500000" />
</g>
<g>
<rect x="443.191818" y="200.632437" width="17.727273" height="1.840516" fill="#AAAAAA" stroke="#AAAAAA" stroke-width="0.500000" />
</g>
<g>
<rect x="425.464545" y="244.478990" width="17.727273" height="1.207352" fill="#F7E700" stroke="#F7E700" stroke-width="0.500000" />
</g>
<g>
<rect x="443.191818" y="507.987144" width="17.727273" height="0.818871" fill="#0D9E91" stroke="#0D9E91" stroke-width="0.500000" />
</g>
<g>
<rect x="425.464545" y="851.062362" width="17.727273" height="0.173520" fill="#0D9E91" stroke="#0D9E91" stroke-width="0.500000" />
</g>
<g>
<rect x="443.191818" y="156.674243" width="17.727273" height="1.346253" fill="#28B15E" stroke="#28B15E" stroke-width="0.500000" />
</g>
<g>
<rect x="425.464545" y="417.024993" width="17.727273" height="1.063953" fill="#08989E" stroke="#08989E" stroke-width="0.500000" />
</g>
<g>
<rect x="425.464545" y="487.941781" width="17.727273" height="0.270183" fill="#E63223" stroke="#E63223" stroke-width="0.500000" />
</g>
<g>
<rect x="443.191818" y="892.487871" width="17.727273" height="0.204645" fill="#43BD3B" stroke="#43BD3B" stroke-width="0.500000" />
</g>
<g>
<rect x="443.191818" y="940.318828" width="17.727273" height="0.273910" fill="#AAAAAA" stroke="#AAAAAA" stroke-width="0.500000" />
</g>
<g>
<rect x="443.191818" y="897.449784" width="17.727273" height="2.177530" fill="#43BD3B" stroke="#43BD3B" stroke-width="0.500000" />
</g>
<g>
<rect x="425.464545" y="863.666067" width="17.727273" height="1.561338" fill="#AAAAAA" stroke="#AAAAAA" stroke-width="0.500000" />
</g>
<g>
<rect x="443.191818" y="494.921526" width="17.727273" height="0.581642" fill="#AAAAAA" stroke="#AAAAAA" stroke-width="0.500000" />
</g>
<g>
<rect x="443.191818" y="85.969775" width="17.727273" height="0.256553" fill="#AF00BE" stroke="#AF00BE" stroke-width="0.500000" />
</g>
<g>
<rect x="425.464545" y="309.849074" width="17.727273" height="0.159422" fill="#28B15E" stroke="#28B15E" stroke-width="0.500000" />
</g>
<g>
<rect x="425.464545" y="891.968878" width="17.727273" height="0.266126" fill="#F2003C" stroke="#F2003C" stroke-width="0.500000" />
</g>
<g>
<rect x="425.464545" y="92.388316" width="17.727273" height="9.465364" fill="#0578B9" stroke="#0578B9" stroke-width="0.500000" />
</g>
<g>
<rect x="443.191818" y="484.913856" width="17.727273" height="0.587597" fill="#EE9A01" stroke="#EE9A01" stroke-width="0.500000" />
</g>
<g>
<rect x="425.464545" y="872.826560" width="17.727273" height="0.977922" fill="#FEDB00" stroke="#FEDB00" stroke-width="0.500000" />
</g>
<g>
<rect x="425.464545" y="455.786796" width="17.727273" height="0.881850" fill="#F2003C" stroke="#F2003C" stroke-width="0.500000" />
</g>
<g>
<rect x="425.464545" y="664.277540" width="17.727273" height="4.238811" fill="#43BD3B" stroke="#43BD3B" stroke-width="0.500000" />
</g>
<g>
<rect x="443.191818" y="371.898343" width="17.727273" height="2.976264" fill="#4927D0" stroke="#4927D0" stroke-width="0.500000" />
</g>
<g>
<rect x="425.464545" y="862.820899" width="17.727273" height="0.191607" fill="#FBC700" stroke="#FBC700" stroke-width="0.500000" />
</g>
<g>
<rect x="443.191818" y="72.613067" width="17.727273" height="0.483837" fill="#54C42C" stroke="#54C42C" stroke-width="0.500000" />
</g>
<g>
<rect x="425.464545" y="448.752737" width="17.727273" height="1.047173" fill="#43BD3B" stroke="#43BD3B" stroke-width="0.500000" />
</g>
<g>
<rect x="443.191818" y="493.957977" width="17.727273" height="0.568122" fill="#14A582" stroke="#14A582" stroke-width="0.500000" />
</g>
<g>
<rect x="425.464545" y="861.243427" width="17.727273" height="0.467126" fill="#FEDB00" stroke="#FEDB00" stroke-width="0.500000" />
</g>
<g>
<rect x="425.464545" y="269.039688" width="17.727273" height="0.697519" fill="#EEEA00" stroke="#EEEA00" stroke-width="0.500000" />
</g>
<g>
<rect x="443.191818" y="936.838480" width="17.727273" height="0.965942" fill="#E1EA01" stroke="#E1EA01" stroke-width="0.500000" />
</g>
<g>
<rect x="443.191818" y="617.643771" width="17.727273" height="0.051096" fill="#43BD3B" stroke="#43BD3B" stroke-width="0.500000" />
</g>
<g>
<rect x="443.191818" y="619.195151" width="17.727273" height="0.161843" fill="#35B74D" stroke="#35B74D" stroke-width="0.500000" />
</g>
<g>
<rect x="425.464545" y="423.425764" width="17.727273" height="2.450601" fill="#EA8805" stroke="#EA8805" stroke-width="0.500000" />
</g>
<g>
<rect x="425.464545" y="267.016244" width="17.727273" height="0.340851" fill="#096EBC" stroke="#096EBC" stroke-width="0.500000" />
</g>
<g>
<rect x="425.464545" y="942.313526" width="17.727273" height="0.046516" fill="#E63223" stroke="#E63223" stroke-width="0.500000" />
</g>
<g>
<rect x="425.464545" y="942.129057" width="17.727273" height="0.023285" fill="#E63223" stroke="#E63223" stroke-width="0.500000" />
</g>
<g>
<rect x="443.191818" y="941.709314" width="17.727273" height="0.025142" fill="#E63223" stroke="#E63223" stroke-width="0.500000" />
</g>
<g>
<rect x="425.464545" y="941.156335" width="17.727273" height="0.036145" fill="#E63223" stroke="#E63223" stroke-width="0.500000" />
</g>
<g>
<rect x="425.464545" y="940.727073" width="17.727273" height="0.046213" fill="#E63223" stroke="#E63223" stroke-width="0.500000" />
</g>
<g>
<rect x="425.464545" y="493.059031" width="17.727273" height="0.646038" fill="#E7750A" stroke="#E7750A" stroke-width="0.500000" />
</g>
<g>
<rect x="425.464545" y="686.239686" width="17.727273" height="2.702161" fill="#EE9A01" stroke="#EE9A01" stroke-width="0.500000" />
</g>
<g>
<rect x="443.191818" y="480.996132" width="17.727273" height="0.147456" fill="#BCE305" stroke="#BCE305" stroke-width="0.500000" />
</g>
<g>
<rect x="425.464545" y="490.964946" width="17.727273" height="1.412341" fill="#AAAAAA" stroke="#AAAAAA" stroke-width="0.500000" />
</g>
<g>
<rect x="425.464545" y="445.973072" width="17.727273" height="1.943368" fill="#A7DE08" stroke="#A7DE08" stroke-width="0.500000" />
</g>
<g>
<rect x="443.191818" y="754.721167" width="17.727273" height="0.970536" fill="#14A582" stroke="#14A582" stroke-width="0.500000" />
</g>
<g>
<rect x="425.464545" y="295.283873" width="17.727273" height="4.046695" fill="#BCE305" stroke="#BCE305" stroke-width="0.500000" />
</g>
<g>
<rect x="425.464545" y="932.524655" width="17.727273" height="0.326629" fill="#AAAAAA" stroke="#AAAAAA" stroke-width="0.500000" />
</g>
<g>
<rect x="425.464545" y="166.716146" width="17.727273" height="0.045031" fill="#AAAAAA" stroke="#AAAAAA" stroke-width="0.500000" />
</g>
<g>
<rect x="443.191818" y="860.095094" width="17.727273" height="0.669805" fill="#0381B5" stroke="#0381B5" stroke-width="0.500000" />
</g>
<g>
<rect x="443.191818" y="925.156525" width="17.727273" height="0.332764" fill="#BA00B3" stroke="#BA00B3" stroke-width="0.500000" />
</g>
<g>
<rect x="443.191818" y="456.674396" width="17.727273" height="0.294321" fill="#EEEA00" stroke="#EEEA00" stroke-width="0.500000" />
</g>
<g>
<rect x="443.191818" y="464.677643" width="17.727273" height="0.387037" fill="#FCE200" stroke="#FCE200" stroke-width="0.500000" />
</g>
<g>
<rect x="425.464545" y="134.054960" width="17.727273" height="0.983052" fill="#1759C2" stroke="#1759C2" stroke-width="0.500000" />
</g>
<g>
<rect x="443.191818" y="867.144255" width="17.727273" height="0.916318" fill="#FEDB00" stroke="#FEDB00" stroke-width="0.500000" />
</g>
<g>
<rect x="425.464545" y="333.165739" width="17.727273" height="1.085134" fill="#FDD200" stroke="#FDD200" stroke-width="0.500000" />
</g>
<g>
<rect x="425.464545" y="761.381324" width="17.727273" height="1.084914" fill="#AAAAAA" stroke="#AAAAAA" stroke-width="0.500000" />
</g>
<g>
<rect x="425.464545" y="899.977146" width="17.727273" height="0.206337" fill="#0F64BF" stroke="#0F64BF" stroke-width="0.500000" />
</g>
<g>
<rect x="443.191818" y="263.712264" width="17.727273" height="2.625676" fill="#C300A4" stroke="#C300A4" stroke-width="0.500000" />
</g>
<g>
<rect x="443.191818" y="323.998493" width="17.727273" height="0.121063" fill="#C300A4" stroke="#C300A4" stroke-width="0.500000" />
</g>
<g>
<rect x="443.191818" y="418.080377" width="17.727273" height="0.691605" fill="#AAAAAA" stroke="#AAAAAA" stroke-width="0.500000" />
</g>
<g>
<rect x="443.191818" y="716.367540" width="17.727273" height="4.144486" fill="#581BD2" stroke="#581BD2" stroke-width="0.500000" />
</g>
<g>
<rect x="425.464545" y="652.092616" width="17.727273" height="1.659266" fill="#A7DE08" stroke="#A7DE08" stroke-width="0.500000" />
</g>
<g>
<rect x="443.191818" y="86.519563" width="17.727273" height="0.816395" fill="#EB1A2F" stroke="#EB1A2F" stroke-width="0.500000" />
</g>
<g>
<rect x="443.191818" y="900.668668" width="17.727273" height="0.150950" fill="#43BD3B" stroke="#43BD3B" stroke-width="0.500000" />
</g>
<g>
<rect x="425.464545" y="723.522868" width="17.727273" height="28.303320" fill="#3A34CD" stroke="#3A34CD" stroke-width="0.500000" />
</g>
<g>
<rect x="425.464545" y="492.494444" width="17.727273" height="0.419661" fill="#AF00BE" stroke="#AF00BE" stroke-width="0.500000" />
</g>
<g>
<rect x="425.464545" y="891.006072" width="17.727273" height="0.403322" fill="#4927D0" stroke="#4927D0" stroke-width="0.500000" />
</g>
<g>
<rect x="425.464545" y="861.808386" width="17.727273" height="0.664661" fill="#E7750A" stroke="#E7750A" stroke-width="0.500000" />
</g>
<g>
<rect x="425.464545" y="459.119110" width="17.727273" height="0.692458" fill="#7CD115" stroke="#7CD115" stroke-width="0.500000" />
</g>
<g>
<rect x="443.191818" y="459.103554" width="17.727273" height="1.050611" fill="#AAAAAA" stroke="#AAAAAA" stroke-width="0.500000" />
</g>
<g>
<rect x="425.464545" y="80.544477" width="17.727273" height="0.072690" fill="#FBC700" stroke="#FBC700" stroke-width="0.500000" />
</g>
<g>
<rect x="425.464545" y="343.042470" width="17.727273" height="0.680506" fill="#A7DE08" stroke="#A7DE08" stroke-width="0.500000" />
</g>
<g>
<rect x="425.464545" y="462.895444" width="17.727273" height="0.371825" fill="#43BD3B" stroke="#43BD3B" stroke-width="0.500000" />
</g>
<g>
<rect x="425.464545" y="60.731666" width="17.727273" height="1.244212" fill="#0389B0" stroke="#0389B0" stroke-width="0.500000" />
</g>
<g>
<rect x="443.191818" y="622.179132" width="17.727273" height="0.646437" fill="#CA0093" stroke="#CA0093" stroke-width="0.500000" />
</g>
<g>
<rect x="425.464545" y="288.846558" width="17.727273" height="2.131523" fill="#FBC700" stroke="#FBC700" stroke-width="0.500000" />
</g>
<g>
<rect x="443.191818" y="465.326982" width="17.727273" height="1.878133" fill="#E7750A" stroke="#E7750A" stroke-width="0.500000" />
</g>
<g>
<rect x="443.191818" y="235.124154" width="17.727273" height="2.418967" fill="#7705D3" stroke="#7705D3" stroke-width="0.500000" />
</g>
<g>
<rect x="443.191818" y="453.309994" width="17.727273" height="0.430555" fill="#FDD200" stroke="#FDD200" stroke-width="0.500000" />
</g>
<g>
<rect x="443.191818" y="496.143800" width="17.727273" height="1.953271" fill="#AAAAAA" stroke="#AAAAAA" stroke-width="0.500000" />
</g>
<g>
<rect x="443.191818" y="62.589581" width="17.727273" height="0.018582" fill="#54C42C" stroke="#54C42C" stroke-width="0.500000" />
</g>
<g>
<rect x="425.464545" y="939.371426" width="17.727273" height="0.177124" fill="#43BD3B" stroke="#43BD3B" stroke-width="0.500000" />
</g>
<g>
<rect x="443.191818" y="924.046992" width="17.727273" height="0.435726" fill="#CA0093" stroke="#CA0093" stroke-width="0.500000" />
</g>
<g>
<rect x="443.191818" y="808.992231" width="17.727273" height="4.148915" fill="#1759C2" stroke="#1759C2" stroke-width="0.500000" />
</g>
<g>
<rect x="425.464545" y="890.266672" width="17.727273" height="0.564505" fill="#BCE305" stroke="#BCE305" stroke-width="0.500000" />
</g>
<g>
<rect x="425.464545" y="703.835686" width="17.727273" height="3.555004" fill="#BA00B3" stroke="#BA00B3" stroke-width="0.500000" />
</g>
<g>
<rect x="443.191818" y="916.888830" width="17.727273" height="0.213572" fill="#54C42C" stroke="#54C42C" stroke-width="0.500000" />
</g>
<g>
<rect x="425.464545" y="198.466763" width="17.727273" height="0.277899" fill="#F7BA00" stroke="#F7BA00" stroke-width="0.500000" />
</g>
<g>
<rect x="425.464545" y="121.174099" width="17.727273" height="3.716352" fill="#43BD3B" stroke="#43BD3B" stroke-width="0.500000" />
</g>
<g>
<rect x="425.464545" y="449.857443" width="17.727273" height="2.453806" fill="#FBC700" stroke="#FBC700" stroke-width="0.500000" />
</g>
<g>
<rect x="425.464545" y="820.967558" width="17.727273" height="12.256293" fill="#8600D1" stroke="#8600D1" stroke-width="0.500000" />
</g>
<g>
<rect x="425.464545" y="377.698299" width="17.727273" height="0.823052" fill="#0D9E91" stroke="#0D9E91" stroke-width="0.500000" />
</g>
<g>
<rect x="443.191818" y="150.555002" width="17.727273" height="0.868481" fill="#67CA1F" stroke="#67CA1F" stroke-width="0.500000" />
</g>
<g>
<rect x="425.464545" y="500.908275" width="17.727273" height="0.423444" fill="#E56011" stroke="#E56011" stroke-width="0.500000" />
</g>
<g>
<rect x="425.464545" y="408.971777" width="17.727273" height="1.613603" fill="#670FD3" stroke="#670FD3" stroke-width="0.500000" />
</g>
<g>
<rect x="443.191818" y="272.740567" width="17.727273" height="2.800736" fill="#7705D3" stroke="#7705D3" stroke-width="0.500000" />
</g>
<g>
<rect x="425.464545" y="879.652618" width="17.727273" height="0.211179" fill="#8600D1" stroke="#8600D1" stroke-width="0.500000" />
</g>
<g>
<rect x="425.464545" y="459.954802" width="17.727273" height="0.607472" fill="#7705D3" stroke="#7705D3" stroke-width="0.500000" />
</g>
<g>
<rect x="425.464545" y="63.608352" width="17.727273" height="0.714725" fill="#0590A8" stroke="#0590A8" stroke-width="0.500000" />
</g>
<g>
<rect x="425.464545" y="927.958994" width="17.727273" height="1.047393" fill="#C300A4" stroke="#C300A4" stroke-width="0.500000" />
</g>
<g>
<rect x="443.191818" y="262.559007" width="17.727273" height="0.883996" fill="#9500CD" stroke="#9500CD" stroke-width="0.500000" />
</g>
<g>
<rect x="443.191818" y="70.426611" width="17.727273" height="0.128861" fill="#7705D3" stroke="#7705D3" stroke-width="0.500000" />
</g>
<g>
<rect x="425.464545" y="248.569905" width="17.727273" height="1.030448" fill="#A7DE08" stroke="#A7DE08" stroke-width="0.500000" />
</g>
<g>
<rect x="443.191818" y="350.284297" width="17.727273" height="15.366191" fill="#7CD115" stroke="#7CD115" stroke-width="0.500000" />
</g>
<g>
<rect x="443.191818" y="480.529666" width="17.727273" height="0.241589" fill="#43BD3B" stroke="#43BD3B" stroke-width="0.500000" />
</g>
<g>
<rect x="425.464545" y="141.532792" width="17.727273" height="0.795131" fill="#08989E" stroke="#08989E" stroke-width="0.500000" />
</g>
<g>
<rect x="425.464545" y="926.487236" width="17.727273" height="0.967799" fill="#A200C7" stroke="#A200C7" stroke-width="0.500000" />
</g>
<g>
<rect x="425.464545" y="475.193274" width="17.727273" height="1.577059" fill="#EA8805" stroke="#EA8805" stroke-width="0.500000" />
</g>
<g>
<rect x="443.191818" y="85.691285" width="17.727273" height="0.237889" fill="#AAAAAA" stroke="#AAAAAA" stroke-width="0.500000" />
</g>
<g>
<rect x="425.464545" y="938.390685" width="17.727273" height="0.322778" fill="#4927D0" stroke="#4927D0" stroke-width="0.500000" />
</g>
<g>
<rect x="443.191818" y="434.100694" width="17.727273" height="1.370529" fill="#92D80E" stroke="#92D80E" stroke-width="0.500000" />
</g>
<g>
<rect x="443.191818" y="889.087957" width="17.727273" height="1.214105" fill="#1DAB70" stroke="#1DAB70" stroke-width="0.500000" />
</g>
<g>
<rect x="443.191818" y="701.116291" width="17.727273" height="0.943757" fill="#F2AB00" stroke="#F2AB00" stroke-width="0.500000" />
</g>
<g>
<rect x="425.464545" y="68.241338" width="17.727273" height="0.528744" fill="#A200C7" stroke="#A200C7" stroke-width="0.500000" />
</g>
<g>
<rect x="443.191818" y="449.732406" width="17.727273" height="0.080530" fill="#43BD3B" stroke="#43BD3B" stroke-width="0.500000" />
</g>
<g>
<rect x="443.191818" y="935.018031" width="17.727273" height="0.200574" fill="#14A582" stroke="#14A582" stroke-width="0.500000" />
</g>
<g>
<rect x="443.191818" y="926.035858" width="17.727273" height="0.265864" fill="#28B15E" stroke="#28B15E" stroke-width="0.500000" />
</g>
<g>
<rect x="443.191818" y="893.330426" width="17.727273" height="0.277253" fill="#7CD115" stroke="#7CD115" stroke-width="0.500000" />
</g>
<g>
<rect x="425.464545" y="917.627323" width="17.727273" height="0.638528" fill="#7CD115" stroke="#7CD115" stroke-width="0.500000" />
</g>
<g>
<rect x="443.191818" y="922.035899" width="17.727273" height="0.777650" fill="#08989E" stroke="#08989E" stroke-width="0.500000" />
</g>
<g>
<rect x="443.191818" y="923.802927" width="17.727273" height="0.286715" fill="#AAAAAA" stroke="#AAAAAA" stroke-width="0.500000" />
</g>
<g>
<rect x="443.191818" y="922.877890" width="17.727273" height="0.338238" fill="#AAAAAA" stroke="#AAAAAA" stroke-width="0.500000" />
</g>
<g>
<rect x="443.191818" y="921.517126" width="17.727273" height="0.393735" fill="#54C42C" stroke="#54C42C" stroke-width="0.500000" />
</g>
<g>
<rect x="443.191818" y="302.221063" width="17.727273" height="1.741859" fill="#C300A4" stroke="#C300A4" stroke-width="0.500000" />
</g>
<g>
<rect x="443.191818" y="875.406724" width="17.727273" height="2.172262" fill="#E56011" stroke="#E56011" stroke-width="0.500000" />
</g>
<g>
<rect x="425.464545" y="673.049346" width="17.727273" height="7.018531" fill="#C300A4" stroke="#C300A4" stroke-width="0.500000" />
</g>
<g>
<rect x="425.464545" y="798.019473" width="17.727273" height="2.771784" fill="#AAAAAA" stroke="#AAAAAA" stroke-width="0.500000" />
</g>
<g>
<rect x="425.464545" y="886.720003" width="17.727273" height="0.918312" fill="#1DAB70" stroke="#1DAB70" stroke-width="0.500000" />
</g>
<g>
<rect x="425.464545" y="802.550184" width="17.727273" height="1.218437" fill="#54C42C" stroke="#54C42C" stroke-width="0.500000" />
</g>
<g>
<rect x="425.464545" y="926.309714" width="17.727273" height="0.591586" fill="#0389B0" stroke="#0389B0" stroke-width="0.500000" />
</g>
<g>
<rect x="425.464545" y="939.776288" width="17.727273" height="0.063667" fill="#D0007F" stroke="#D0007F" stroke-width="0.500000" />
</g>
<g>
<rect x="425.464545" y="763.190633" width="17.727273" height="2.202342" fill="#FEDB00" stroke="#FEDB00" stroke-width="0.500000" />
</g>
<g>
<rect x="443.191818" y="935.331745" width="17.727273" height="0.092908" fill="#D0E702" stroke="#D0E702" stroke-width="0.500000" />
</g>
<g>
<rect x="443.191818" y="267.782479" width="17.727273" height="1.031933" fill="#214DC5" stroke="#214DC5" stroke-width="0.500000" />
</g>
<g>
<rect x="425.464545" y="324.289431" width="17.727273" height="1.560870" fill="#EB1A2F" stroke="#EB1A2F" stroke-width="0.500000" />
</g>
<g>
<rect x="425.464545" y="914.375250" width="17.727273" height="1.037421" fill="#FBC700" stroke="#FBC700" stroke-width="0.500000" />
</g>
<g>
<rect x="443.191818" y="287.062131" width="17.727273" height="1.791703" fill="#0381B5" stroke="#0381B5" stroke-width="0.500000" />
</g>
<g>
<rect x="443.191818" y="90.666415" width="17.727273" height="1.545136" fill="#4927D0" stroke="#4927D0" stroke-width="0.500000" />
</g>
<g>
<rect x="443.191818" y="937.956238" width="17.727273" height="0.372361" fill="#EB1A2F" stroke="#EB1A2F" stroke-width="0.500000" />
</g>
<g>
<rect x="425.464545" y="63.068549" width="17.727273" height="0.309616" fill="#14A582" stroke="#14A582" stroke-width="0.500000" />
</g>
<g>
<rect x="443.191818" y="935.922781" width="17.727273" height="0.090790" fill="#581BD2" stroke="#581BD2" stroke-width="0.500000" />
</g>
<g>
<rect x="443.191818" y="79.718895" width="17.727273" height="0.283992" fill="#0389B0" stroke="#0389B0" stroke-width="0.500000" />
</g>
<g>
<rect x="425.464545" y="912.119047" width="17.727273" height="0.619988" fill="#D0007F" stroke="#D0007F" stroke-width="0.500000" />
</g>
<g>
<rect x="425.464545" y="910.858151" width="17.727273" height="0.713075" fill="#FBC700" stroke="#FBC700" stroke-width="0.500000" />
</g>
<g>
<rect x="425.464545" y="501.890432" width="17.727273" height="0.794320" fill="#7CD115" stroke="#7CD115" stroke-width="0.500000" />
</g>
<g>
<rect x="425.464545" y="907.983144" width="17.727273" height="1.446602" fill="#8600D1" stroke="#8600D1" stroke-width="0.500000" />
</g>
<g>
<rect x="443.191818" y="873.992677" width="17.727273" height="0.617155" fill="#08989E" stroke="#08989E" stroke-width="0.500000" />
</g>
<g>
<rect x="425.464545" y="338.185666" width="17.727273" height="2.128456" fill="#14A582" stroke="#14A582" stroke-width="0.500000" />
</g>
<g>
<rect x="425.464545" y="938.850164" width="17.727273" height="0.477593" fill="#D0E702" stroke="#D0E702" stroke-width="0.500000" />
</g>
<g>
<rect x="425.464545" y="208.544605" width="17.727273" height="7.192271" fill="#670FD3" stroke="#670FD3" stroke-width="0.500000" />
</g>
<g>
<rect x="443.191818" y="900.852916" width="17.727273" height="0.723776" fill="#FBC700" stroke="#FBC700" stroke-width="0.500000" />
</g>
<g>
<rect x="443.191818" y="457.260384" width="17.727273" height="1.507092" fill="#D0007F" stroke="#D0007F" stroke-width="0.500000" />
</g>
<g>
<rect x="443.191818" y="66.384675" width="17.727273" height="1.204546" fill="#14A582" stroke="#14A582" stroke-width="0.500000" />
</g>
<g>
<rect x="443.191818" y="226.301293" width="17.727273" height="2.099476" fill="#14A582" stroke="#14A582" stroke-width="0.500000" />
</g>
<g>
<rect x="425.464545" y="67.692706" width="17.727273" height="0.394423" fill="#14A582" stroke="#14A582" stroke-width="0.500000" />
</g>
<g>
<rect x="443.191818" y="376.035842" width="17.727273" height="1.914884" fill="#0389B0" stroke="#0389B0" stroke-width="0.500000" />
</g>
<g>
<rect x="425.464545" y="692.386627" width="17.727273" height="0.394918" fill="#14A582" stroke="#14A582" stroke-width="0.500000" />
</g>
<g>
<rect x="443.191818" y="206.968716" width="17.727273" height="0.589248" fill="#670FD3" stroke="#670FD3" stroke-width="0.500000" />
</g>
<g>
<rect x="443.191818" y="312.017953" width="17.727273" height="0.323480" fill="#0D9E91" stroke="#0D9E91" stroke-width="0.500000" />
</g>
<g>
<rect x="425.464545" y="479.540067" width="17.727273" height="0.833656" fill="#14A582" stroke="#14A582" stroke-width="0.500000" />
</g>
<g>
<rect x="443.191818" y="909.593487" width="17.727273" height="0.589839" fill="#14A582" stroke="#14A582" stroke-width="0.500000" />
</g>
<g>
<rect x="425.464545" y="129.269663" width="17.727273" height="1.866855" fill="#670FD3" stroke="#670FD3" stroke-width="0.500000" />
</g>
<g>
<rect x="425.464545" y="313.297761" width="17.727273" height="0.295779" fill="#AAAAAA" stroke="#AAAAAA" stroke-width="0.500000" />
</g>
<line x1="443.191818" y1="944.318182" x2="443.191818" y2="57.954545" style="stroke:#4499AA; stroke-width:7.000000" />
</svg>
